<svg width="2744" height="1564" viewBox="0 0 2744 1564" fill="none" xmlns="http://www.w3.org/2000/svg">
<rect width="2744" height="1564" fill="white"/>
<rect width="2744" height="1564" fill="url(#paint0_linear_401_78)"/>
<path d="M1511.6 658.84C1432.43 802.504 1325.58 895.495 1272.95 866.541C1220.31 837.586 1241.82 697.651 1320.99 553.986C1400.15 410.322 1507 317.331 1559.64 346.285C1612.28 375.24 1590.77 515.175 1511.6 658.84Z" fill="#FFDD00"/>
<path d="M1581.55 761.339C1436.06 862.861 1291.94 907.717 1259.65 861.527C1227.36 815.336 1319.13 695.592 1464.63 594.069C1610.12 492.547 1754.24 447.691 1786.53 493.881C1818.82 540.071 1727.05 659.816 1581.55 761.339Z" fill="#FF9900"/>
<path d="M1373.64 589.08C1383.34 752.794 1342.57 888.384 1282.59 891.929C1222.6 895.475 1166.12 765.633 1156.43 601.92C1146.73 438.206 1187.5 302.616 1247.48 299.071C1307.47 295.525 1363.95 425.367 1373.64 589.08Z" fill="#DF0000"/>
<path d="M1167.2 1194H1139.2L1075.8 1098.2V1194H1047.8V1054.2H1075.8L1139.2 1150.2V1054.2H1167.2V1194Z" fill="#DF0000"/>
<path d="M1209.07 1070C1204.14 1070 1200 1068.47 1196.67 1065.4C1193.47 1062.2 1191.87 1058.27 1191.87 1053.6C1191.87 1048.93 1193.47 1045.07 1196.67 1042C1200 1038.8 1204.14 1037.2 1209.07 1037.2C1214 1037.2 1218.07 1038.8 1221.27 1042C1224.6 1045.07 1226.27 1048.93 1226.27 1053.6C1226.27 1058.27 1224.6 1062.2 1221.27 1065.4C1218.07 1068.47 1214 1070 1209.07 1070ZM1222.87 1083.2V1194H1194.87V1083.2H1222.87ZM1278.53 1099.2C1282.13 1094.13 1287.07 1089.93 1293.33 1086.6C1299.73 1083.13 1307 1081.4 1315.13 1081.4C1324.6 1081.4 1333.13 1083.73 1340.73 1088.4C1348.47 1093.07 1354.53 1099.73 1358.93 1108.4C1363.47 1116.93 1365.73 1126.87 1365.73 1138.2C1365.73 1149.53 1363.47 1159.6 1358.93 1168.4C1354.53 1177.07 1348.47 1183.8 1340.73 1188.6C1333.13 1193.4 1324.6 1195.8 1315.13 1195.8C1307 1195.8 1299.8 1194.13 1293.53 1190.8C1287.4 1187.47 1282.4 1183.27 1278.53 1178.2V1246.8H1250.53V1083.2H1278.53V1099.2ZM1337.13 1138.2C1337.13 1131.53 1335.73 1125.8 1332.93 1121C1330.27 1116.07 1326.67 1112.33 1322.13 1109.8C1317.73 1107.27 1312.93 1106 1307.73 1106C1302.67 1106 1297.87 1107.33 1293.33 1110C1288.93 1112.53 1285.33 1116.27 1282.53 1121.2C1279.87 1126.13 1278.53 1131.93 1278.53 1138.6C1278.53 1145.27 1279.87 1151.07 1282.53 1156C1285.33 1160.93 1288.93 1164.73 1293.33 1167.4C1297.87 1169.93 1302.67 1171.2 1307.73 1171.2C1312.93 1171.2 1317.73 1169.87 1322.13 1167.2C1326.67 1164.53 1330.27 1160.73 1332.93 1155.8C1335.73 1150.87 1337.13 1145 1337.13 1138.2ZM1378.88 1138.2C1378.88 1127 1381.08 1117.07 1385.48 1108.4C1390.01 1099.73 1396.08 1093.07 1403.68 1088.4C1411.41 1083.73 1420.01 1081.4 1429.48 1081.4C1437.75 1081.4 1444.95 1083.07 1451.08 1086.4C1457.35 1089.73 1462.35 1093.93 1466.08 1099V1083.2H1494.28V1194H1466.08V1177.8C1462.48 1183 1457.48 1187.33 1451.08 1190.8C1444.81 1194.13 1437.55 1195.8 1429.28 1195.8C1419.95 1195.8 1411.41 1193.4 1403.68 1188.6C1396.08 1183.8 1390.01 1177.07 1385.48 1168.4C1381.08 1159.6 1378.88 1149.53 1378.88 1138.2ZM1466.08 1138.6C1466.08 1131.8 1464.75 1126 1462.08 1121.2C1459.41 1116.27 1455.81 1112.53 1451.28 1110C1446.75 1107.33 1441.88 1106 1436.68 1106C1431.48 1106 1426.68 1107.27 1422.28 1109.8C1417.88 1112.33 1414.28 1116.07 1411.48 1121C1408.81 1125.8 1407.48 1131.53 1407.48 1138.2C1407.48 1144.87 1408.81 1150.73 1411.48 1155.8C1414.28 1160.73 1417.88 1164.53 1422.28 1167.2C1426.81 1169.87 1431.61 1171.2 1436.68 1171.2C1441.88 1171.2 1446.75 1169.93 1451.28 1167.4C1455.81 1164.73 1459.41 1161 1462.08 1156.2C1464.75 1151.27 1466.08 1145.4 1466.08 1138.6ZM1554.23 1106.2V1159.8C1554.23 1163.53 1555.09 1166.27 1556.83 1168C1558.69 1169.6 1561.76 1170.4 1566.03 1170.4H1579.03V1194H1561.43C1537.83 1194 1526.03 1182.53 1526.03 1159.6V1106.2H1512.83V1083.2H1526.03V1055.8H1554.23V1083.2H1579.03V1106.2H1554.23ZM1702.17 1136.2C1702.17 1140.2 1701.9 1143.8 1701.37 1147H1620.37C1621.03 1155 1623.83 1161.27 1628.77 1165.8C1633.7 1170.33 1639.77 1172.6 1646.97 1172.6C1657.37 1172.6 1664.77 1168.13 1669.17 1159.2H1699.37C1696.17 1169.87 1690.03 1178.67 1680.97 1185.6C1671.9 1192.4 1660.77 1195.8 1647.57 1195.8C1636.9 1195.8 1627.3 1193.47 1618.77 1188.8C1610.37 1184 1603.77 1177.27 1598.97 1168.6C1594.3 1159.93 1591.97 1149.93 1591.97 1138.6C1591.97 1127.13 1594.3 1117.07 1598.97 1108.4C1603.63 1099.73 1610.17 1093.07 1618.57 1088.4C1626.97 1083.73 1636.63 1081.4 1647.57 1081.4C1658.1 1081.4 1667.5 1083.67 1675.77 1088.2C1684.17 1092.73 1690.63 1099.2 1695.17 1107.6C1699.83 1115.87 1702.17 1125.4 1702.17 1136.2ZM1673.17 1128.2C1673.03 1121 1670.43 1115.27 1665.37 1111C1660.3 1106.6 1654.1 1104.4 1646.77 1104.4C1639.83 1104.4 1633.97 1106.53 1629.17 1110.8C1624.5 1114.93 1621.63 1120.73 1620.57 1128.2H1673.17Z" fill="black"/>
<rect x="2526" y="1350" width="149" height="149" rx="40" fill="white"/>
<path d="M2581.67 1408.44C2581.67 1413.55 2577.54 1417.69 2572.43 1417.69C2567.33 1417.69 2563.19 1413.55 2563.19 1408.44C2563.19 1403.34 2567.33 1399.2 2572.43 1399.2C2577.54 1399.2 2581.67 1403.34 2581.67 1408.44Z" fill="#0CF3F5"/>
<path d="M2635.5 1408.44C2635.5 1413.55 2631.36 1417.69 2626.26 1417.69C2621.15 1417.69 2617.02 1413.55 2617.02 1408.44C2617.02 1403.34 2621.15 1399.2 2626.26 1399.2C2631.36 1399.2 2635.5 1403.34 2635.5 1408.44Z" fill="#0CF3F5"/>
<path d="M2597.92 1425.8C2599.75 1425.11 2601.77 1425.13 2603.59 1425.85L2623.24 1433.65C2629.91 1436.3 2629.83 1445.76 2623.12 1448.3L2603.34 1455.76C2601.51 1456.46 2599.49 1456.44 2597.67 1455.72L2578.02 1447.92C2571.35 1445.27 2571.43 1435.81 2578.15 1433.27L2597.92 1425.8Z" fill="#0351EA"/>
<defs>
<linearGradient id="paint0_linear_401_78" x1="2744" y1="351.5" x2="-5.4058e-06" y2="921" gradientUnits="userSpaceOnUse">
<stop stop-color="#FF9900" stop-opacity="0.2"/>
<stop offset="1" stop-color="#FFDD00" stop-opacity="0.2"/>
</linearGradient>
</defs>
</svg>
