<svg width="185" height="172" viewBox="0 0 185 172" fill="none" xmlns="http://www.w3.org/2000/svg">
<path d="M103.353 104.04C80.4836 145.577 49.6182 172.463 34.4129 164.092C19.2076 155.72 25.4204 115.261 48.2896 73.7236C71.1587 32.1862 102.024 5.3 117.229 13.6715C132.435 22.0431 126.222 62.5022 103.353 104.04Z" fill="#FFDD00"/>
<path d="M123.559 133.675C81.5305 163.028 39.8984 175.997 30.5713 162.642C21.2443 149.287 47.7542 114.666 89.783 85.3126C131.812 55.9597 173.444 42.9907 182.771 56.3455C192.098 69.7004 165.588 104.322 123.559 133.675Z" fill="#FF9900"/>
<path d="M63.501 83.8702C66.3014 131.204 54.525 170.407 37.1978 171.432C19.8706 172.457 3.55399 134.916 0.753655 87.5824C-2.04668 40.2484 9.72969 1.0456 27.0569 0.0205036C44.3841 -1.00459 60.7007 36.5362 63.501 83.8702Z" fill="#DF0000"/>
</svg>
