<svg width="567" height="172" viewBox="0 0 567 172" fill="none" xmlns="http://www.w3.org/2000/svg">
<path d="M103.353 104.04C80.4836 145.577 49.6182 172.463 34.4129 164.092C19.2076 155.72 25.4204 115.261 48.2896 73.7236C71.1587 32.1862 102.024 5.3 117.229 13.6715C132.435 22.0431 126.222 62.5022 103.353 104.04Z" fill="#FFDD00"/>
<path d="M123.559 133.675C81.5305 163.028 39.8984 175.997 30.5713 162.642C21.2443 149.287 47.7542 114.666 89.783 85.3126C131.812 55.9597 173.444 42.9907 182.771 56.3455C192.098 69.7004 165.588 104.322 123.559 133.675Z" fill="#FF9900"/>
<path d="M63.501 83.8702C66.3014 131.204 54.525 170.407 37.1978 171.432C19.8706 172.457 3.55399 134.916 0.753655 87.5824C-2.04668 40.2484 9.72969 1.0456 27.0569 0.0205036C44.3841 -1.00459 60.7007 36.5362 63.501 83.8702Z" fill="#DF0000"/>
<path d="M231.405 129.222C235.916 129.222 238.67 126.41 238.67 121.605V68.9294H239.198L278.69 124.711C281.092 128.109 283.084 129.222 286.541 129.222C291.463 129.222 294.217 126.469 294.217 121.664V50.2966C294.217 45.4919 291.522 42.6794 286.951 42.6794C282.44 42.6794 279.686 45.4919 279.686 50.2966V102.914H279.159L239.784 47.1912C237.323 43.8513 235.272 42.6794 231.932 42.6794C227.069 42.6794 224.08 45.6091 224.08 50.4724V121.605C224.08 126.41 226.834 129.222 231.405 129.222Z" fill="#DF0000"/>
<path d="M315.311 57.3865C319.881 57.3865 323.455 53.8708 323.455 49.4763C323.455 45.0232 319.881 41.5662 315.311 41.5662C310.799 41.5662 307.225 45.0232 307.225 49.4763C307.225 53.8708 310.799 57.3865 315.311 57.3865ZM315.311 129.398C319.764 129.398 322.635 126.469 322.635 121.722V72.6208C322.635 67.8748 319.764 64.8865 315.311 64.8865C310.858 64.8865 308.045 67.8748 308.045 72.5623V121.722C308.045 126.469 310.858 129.398 315.311 129.398ZM342.147 150.316C346.424 150.316 349.471 147.562 349.471 142.64V117.914H349.764C353.162 124.886 360.194 129.222 369.217 129.222C384.803 129.222 394.764 116.976 394.764 97.1716C394.764 77.3083 384.744 65.0623 368.983 65.0623C359.959 65.0623 352.928 69.6326 349.412 76.8396H349.119V72.3865C349.119 67.5818 346.131 64.8865 341.971 64.8865C337.811 64.8865 334.881 67.5818 334.881 72.3865V142.64C334.881 147.562 337.869 150.316 342.147 150.316ZM364.53 117.269C355.448 117.269 349.412 109.359 349.354 97.1716C349.412 85.1013 355.448 77.074 364.53 77.074C373.963 77.074 379.823 84.9255 379.823 97.1716C379.823 109.476 373.963 117.269 364.53 117.269ZM422.362 129.222C430.389 129.222 438.182 125.062 441.756 118.324H442.049V122.66C442.284 126.996 445.037 129.398 449.022 129.398C453.123 129.398 456.112 126.761 456.112 122.074V85.4529C456.112 72.9724 446.092 64.8279 430.682 64.8279C418.787 64.8279 409.178 69.3982 406.014 76.6052C405.369 77.9529 405.018 79.2419 405.018 80.5896C405.018 84.1052 407.596 86.449 411.17 86.449C413.631 86.449 415.565 85.5115 417.088 83.5193C420.721 78.1873 424.412 76.2537 430.096 76.2537C437.303 76.2537 441.698 80.0037 441.698 86.5076V90.9607L425.233 91.8982C410.116 92.8357 401.619 99.4568 401.619 110.472C401.619 121.664 410.35 129.222 422.362 129.222ZM426.815 118.207C420.487 118.207 416.209 114.984 416.209 109.886C416.209 104.965 420.252 101.801 427.284 101.332L441.698 100.453V105.199C441.698 112.699 435.018 118.207 426.815 118.207ZM471.932 112.875C471.932 123.48 477.44 128.871 488.28 128.871H488.866C495.545 128.871 499.295 126.586 499.295 122.308C499.295 118.91 497.303 117.269 493.436 116.918L492.381 116.801C488.162 116.449 486.522 114.398 486.522 109.711V77.3669H493.26C496.893 77.3669 499.119 75.199 499.119 71.6833C499.119 68.2263 496.893 66.1169 493.26 66.1169H486.522V57.8552C486.522 53.1677 483.709 50.238 479.256 50.238C474.744 50.238 471.932 53.1677 471.932 57.8552V66.1169H468.006C464.373 66.1169 462.147 68.2263 462.147 71.6833C462.147 75.199 464.373 77.3669 468.006 77.3669H471.932V112.875ZM534.627 129.457C546.463 129.457 555.721 124.828 559.823 116.918C560.467 115.629 560.819 114.34 560.819 113.226C560.819 109.711 558.241 107.601 554.959 107.601C552.909 107.601 551.561 108.246 550.037 109.945C545.35 115.922 541.073 118.207 534.51 118.207C525.018 118.207 518.983 111.527 518.983 101.156V100.687H555.604C559.94 100.687 562.401 98.1091 562.401 93.7732C562.401 76.8982 550.799 64.8279 533.807 64.8279C515.877 64.8279 504.451 77.6013 504.451 97.406C504.451 117.562 515.643 129.457 534.627 129.457ZM519.1 91.0779C519.686 82.1716 525.662 76.1365 533.866 76.1365C542.069 76.1365 547.811 82.0544 548.104 91.0779H519.1Z" fill="black"/>
</svg>
