<svg width="185" height="173" viewBox="0 0 185 173" fill="none" xmlns="http://www.w3.org/2000/svg">
<path d="M103.67 104.875C80.8004 146.413 49.935 173.299 34.7297 164.927C19.5244 156.556 25.7372 116.097 48.6063 74.5592C71.4755 33.0218 102.341 6.13558 117.546 14.5071C132.751 22.8786 126.539 63.3378 103.67 104.875Z" fill="#FFDD00"/>
<path d="M123.876 134.51C81.8473 163.863 40.2152 176.832 30.8881 163.478C21.5611 150.123 48.071 115.501 90.0998 86.1482C132.129 56.7953 173.761 43.8262 183.088 57.1811C192.415 70.536 165.905 105.158 123.876 134.51Z" fill="#FF9900"/>
<path d="M63.8178 84.7058C66.6181 132.04 54.8418 171.243 37.5146 172.268C20.1874 173.293 3.87076 135.752 1.07043 88.418C-1.7299 41.084 10.0465 1.88117 27.3737 0.856075C44.7009 -0.169021 61.0175 37.3718 63.8178 84.7058Z" fill="#DF0000"/>
</svg>
